HIERARCHY
ROOT Hip
{
	OFFSET -0.182990 0.224807 0.149102
	CHANNELS 6 Xposition Yposition Zposition Xrotation Yrotation Zrotation
	JOINT LowerSpine
	{
		OFFSET -0.001262 0.143019 0.265921
		CHANNELS 6 Xposition Yposition Zposition Xrotation Yrotation Zrotation
		JOINT MiddleSpine
		{
			OFFSET -0.010037 -0.021146 0.235877
			CHANNELS 3 Xrotation Yrotation Zrotation
			JOINT Chest
			{
				OFFSET -0.008185 0.046108 0.295107
				CHANNELS 3 Xrotation Yrotation Zrotation
				JOINT Neck
				{
					OFFSET -0.025452 -0.015681 0.659659
					CHANNELS 6 Xposition Yposition Zposition Xrotation Yrotation Zrotation
					JOINT Head
					{
						OFFSET -0.020709 -0.116950 0.367672
						CHANNELS 3 Xrotation Yrotation Zrotation
						End Site
						{
							OFFSET -0.002216 -0.003865 0.053381
						}
					}
				}
				JOINT LClavicle
				{
					OFFSET 0.023101 -0.226561 0.629513
					CHANNELS 6 Xposition Yposition Zposition Xrotation Yrotation Zrotation
					JOINT LShoulder
					{
						OFFSET 0.354608 0.122535 0.110832
						CHANNELS 3 Xrotation Yrotation Zrotation
						JOINT LForearm
						{
							OFFSET 0.825644 -0.042444 0.028047
							CHANNELS 3 Xrotation Yrotation Zrotation
							JOINT LHand
							{
								OFFSET 0.688477 -0.037438 0.027755
								CHANNELS 3 Xrotation Yrotation Zrotation
								JOINT LFinger1
								{
									OFFSET 0.261505 -0.091146 0.029940
									CHANNELS 6 Xposition Yposition Zposition Xrotation Yrotation Zrotation
									JOINT LFinger11
									{
										OFFSET 0.099723 -0.022556 -0.021433
										CHANNELS 3 Xrotation Yrotation Zrotation
										JOINT LFinger12
										{
											OFFSET 0.068079 -0.015403 -0.014636
											CHANNELS 3 Xrotation Yrotation Zrotation
											End Site
											{
												OFFSET 0.050713 -0.010610 -0.013603
											}
										}
									}
								}
								JOINT LFinger2
								{
									OFFSET 0.269303 -0.023910 0.036733
									CHANNELS 6 Xposition Yposition Zposition Xrotation Yrotation Zrotation
									JOINT LFinger21
									{
										OFFSET 0.123407 -0.006720 0.004960
										CHANNELS 3 Xrotation Yrotation Zrotation
										JOINT LFinger22
										{
											OFFSET 0.068405 -0.003714 0.002769
											CHANNELS 3 Xrotation Yrotation Zrotation
											End Site
											{
												OFFSET 0.053446 -0.003122 -0.001790
											}
										}
									}
								}
								JOINT LFinger3
								{
									OFFSET 0.259435 0.044468 0.030249
									CHANNELS 6 Xposition Yposition Zposition Xrotation Yrotation Zrotation
									JOINT LFinger31
									{
										OFFSET 0.112591 0.000504 -0.001198
										CHANNELS 3 Xrotation Yrotation Zrotation
										JOINT LFinger32
										{
											OFFSET 0.064161 0.000299 -0.000662
											CHANNELS 3 Xrotation Yrotation Zrotation
											End Site
											{
												OFFSET 0.053381 -0.000411 -0.004438
											}
										}
									}
								}
								JOINT LFinger4
								{
									OFFSET 0.244971 0.091238 -0.004564
									CHANNELS 6 Xposition Yposition Zposition Xrotation Yrotation Zrotation
									JOINT LFinger41
									{
										OFFSET 0.070546 0.015467 -0.010963
										CHANNELS 3 Xrotation Yrotation Zrotation
										JOINT LFinger42
										{
											OFFSET 0.051733 0.011350 -0.008023
											CHANNELS 3 Xrotation Yrotation Zrotation
											End Site
											{
												OFFSET 0.051533 0.009097 -0.011447
											}
										}
									}
								}
								JOINT LFinger0
								{
									OFFSET 0.054397 -0.043377 -0.041627
									CHANNELS 6 Xposition Yposition Zposition Xrotation Yrotation Zrotation
									JOINT LFinger01
									{
										OFFSET 0.099550 -0.082204 -0.033423
										CHANNELS 3 Xrotation Yrotation Zrotation
										JOINT LFinger02
										{
											OFFSET 0.065764 -0.051780 -0.023900
											CHANNELS 3 Xrotation Yrotation Zrotation
											End Site
											{
												OFFSET 0.041289 -0.030969 -0.014337
											}
										}
									}
								}
							}
						}
					}
				}
				JOINT RClavicle
				{
					OFFSET -0.096579 -0.219347 0.625067
					CHANNELS 6 Xposition Yposition Zposition Xrotation Yrotation Zrotation
					JOINT RShoulder
					{
						OFFSET -0.344633 0.164692 0.084872
						CHANNELS 3 Xrotation Yrotation Zrotation
						JOINT RForearm
						{
							OFFSET -0.824574 0.056990 -0.033260
							CHANNELS 3 Xrotation Yrotation Zrotation
							JOINT RHand
							{
								OFFSET -0.688153 0.045511 -0.023388
								CHANNELS 3 Xrotation Yrotation Zrotation
								JOINT RFinger1
								{
									OFFSET -0.272040 -0.058998 0.010121
									CHANNELS 6 Xposition Yposition Zposition Xrotation Yrotation Zrotation
									JOINT RFinger11
									{
										OFFSET -0.099849 -0.010531 -0.028847
										CHANNELS 3 Xrotation Yrotation Zrotation
										JOINT RFinger12
										{
											OFFSET -0.068164 -0.007193 -0.019701
											CHANNELS 3 Xrotation Yrotation Zrotation
											End Site
											{
												OFFSET -0.050474 -0.004513 -0.017362
											}
										}
									}
								}
								JOINT RFinger2
								{
									OFFSET -0.272201 0.008718 0.016618
									CHANNELS 6 Xposition Yposition Zposition Xrotation Yrotation Zrotation
									JOINT RFinger21
									{
										OFFSET -0.123352 0.008149 -0.004207
										CHANNELS 3 Xrotation Yrotation Zrotation
										JOINT RFinger22
										{
											OFFSET -0.068374 0.004531 -0.002312
											CHANNELS 3 Xrotation Yrotation Zrotation
											End Site
											{
												OFFSET -0.053155 0.003301 -0.005750
											}
										}
									}
								}
								JOINT RFinger3
								{
									OFFSET -0.253752 0.075390 0.011183
									CHANNELS 6 Xposition Yposition Zposition Xrotation Yrotation Zrotation
									JOINT RFinger31
									{
										OFFSET -0.111320 0.013996 -0.009517
										CHANNELS 3 Xrotation Yrotation Zrotation
										JOINT RFinger32
										{
											OFFSET -0.063436 0.007988 -0.005402
											CHANNELS 3 Xrotation Yrotation Zrotation
											End Site
											{
												OFFSET -0.052570 0.005973 -0.008374
											}
										}
									}
								}
								JOINT RFinger4
								{
									OFFSET -0.231250 0.119933 -0.022256
									CHANNELS 6 Xposition Yposition Zposition Xrotation Yrotation Zrotation
									JOINT RFinger41
									{
										OFFSET -0.067178 0.023765 -0.016077
										CHANNELS 3 Xrotation Yrotation Zrotation
										JOINT RFinger42
										{
											OFFSET -0.049263 0.017435 -0.011773
											CHANNELS 3 Xrotation Yrotation Zrotation
											End Site
											{
												OFFSET -0.049082 0.015160 -0.015185
											}
										}
									}
								}
								JOINT RFinger0
								{
									OFFSET -0.055978 -0.036724 -0.045725
									CHANNELS 6 Xposition Yposition Zposition Xrotation Yrotation Zrotation
									JOINT RFinger01
									{
										OFFSET -0.105944 -0.069824 -0.041064
										CHANNELS 3 Xrotation Yrotation Zrotation
										JOINT RFinger02
										{
											OFFSET -0.069548 -0.043627 -0.028924
											CHANNELS 3 Xrotation Yrotation Zrotation
											End Site
											{
												OFFSET -0.043531 -0.025859 -0.017488
											}
										}
									}
								}
							}
						}
					}
				}
			}
		}
	}
	JOINT RThigh
	{
		OFFSET -0.309184 0.038559 0.106839
		CHANNELS 6 Xposition Yposition Zposition Xrotation Yrotation Zrotation
		JOINT RShin
		{
			OFFSET 0.025706 0.052541 -1.206018
			CHANNELS 3 Xrotation Yrotation Zrotation
			JOINT RFoot
			{
				OFFSET 0.046996 0.050281 -1.183431
				CHANNELS 3 Xrotation Yrotation Zrotation
				JOINT RToe
				{
					OFFSET -0.010755 -0.266187 -0.142246
					CHANNELS 3 Xrotation Yrotation Zrotation
					End Site
					{
						OFFSET -0.003130 -0.053422 -0.002394
					}
				}
			}
		}
	}
	JOINT LThigh
	{
		OFFSET 0.302820 0.001685 0.129585
		CHANNELS 6 Xposition Yposition Zposition Xrotation Yrotation Zrotation
		JOINT LShin
		{
			OFFSET 0.070018 0.049871 -1.204380
			CHANNELS 3 Xrotation Yrotation Zrotation
			JOINT LFoot
			{
				OFFSET 0.046996 0.050282 -1.183431
				CHANNELS 3 Xrotation Yrotation Zrotation
				JOINT LToe
				{
					OFFSET -0.010755 -0.266189 -0.142246
					CHANNELS 3 Xrotation Yrotation Zrotation
					End Site
					{
						OFFSET -0.003130 -0.053422 -0.002394
					}
				}
			}
		}
	}
}
MOTION
Frames: 5
Frame Time: 0.041667
-0.176053 1.201455 1.582429 11.290351 22.527934 53.220516 -0.001262 0.143019 0.265921 0.039447 0.057270 2.370247 -3.513916 5.775879 -1.220465 -12.794213 20.237917 0.650954 -0.025452 -0.015681 0.659659 -0.147743 -0.066519 -0.031737 -0.031055 0.147545 -0.018105 0.023101 -0.226561 0.629514 -3.708502 27.742480 0.598002 -16.163675 -33.300847 -8.834360 0.142726 0.087860 -3.192065 0.000006 0.000004 -0.000004 0.261504 -0.091147 0.029940 0.000004 -0.000008 -0.000009 -0.000002 0.000007 -0.000008 0.000014 0.000002 -0.000014 0.269303 -0.023910 0.036733 0.000001 0.000000 -0.000006 0.000001 0.000005 -0.000002 -0.000001 0.000000 0.000004 0.259434 0.044467 0.030249 0.000000 0.000004 0.000001 -0.000000 -0.000001 0.000004 -0.000003 0.000004 -0.000005 0.244970 0.091238 -0.004565 0.000002 0.000001 -0.000008 -0.000004 -0.000000 0.000011 0.000002 0.000000 0.000003 0.054396 -0.043377 -0.041628 -0.000010 -0.000011 0.000001 0.000003 0.000004 -0.000011 0.000003 0.000007 -0.000002 -0.096579 -0.219347 0.625068 8.676141 -2.795949 16.353783 13.512810 17.361212 16.926015 3.216587 -5.260645 143.994171 -0.004170 -0.023733 -0.003185 -0.272039 -0.058998 0.010121 0.000004 0.000001 0.000004 0.000007 -0.000015 -0.000002 -0.000004 0.000010 0.000001 -0.272201 0.008718 0.016618 0.000000 -0.000002 0.000003 -0.000000 0.000002 0.000003 0.000000 0.000002 0.000014 -0.253752 0.075389 0.011183 0.000008 0.000004 0.000003 -0.000005 0.000002 -0.000006 0.000017 0.000001 -0.000007 -0.231249 0.119933 -0.022256 0.000005 0.000004 0.000007 -0.000015 -0.000001 0.000006 -0.000000 -0.000009 -0.000007 -0.055977 -0.036723 -0.045725 0.000011 0.000017 0.000009 0.000011 -0.000013 -0.000005 0.000001 -0.000003 -0.000001 -0.309184 0.038560 0.106839 -81.790354 43.634032 -10.410731 70.909289 -1.807491 4.391981 8.791310 8.887247 -20.660829 0.000005 0.000014 0.000005 0.286956 0.010519 0.243539 -78.273613 -53.103290 12.223593 65.649866 -1.892455 3.963094 3.013313 0.096201 -0.408463 -0.015661 0.000938 -0.000586 
-0.160854 1.233380 1.560560 10.892275 23.097116 53.997338 -0.001262 0.143019 0.265921 0.040266 0.057834 2.354594 -3.585611 6.088185 -1.266943 -13.113124 21.322792 0.366745 -0.025452 -0.015682 0.659659 -0.141456 -0.062977 -0.030523 -0.023335 0.194398 -0.014601 0.023101 -0.226561 0.629513 -3.743420 27.662235 0.614204 -17.613022 -36.851155 -8.696697 0.144980 0.090161 -3.245371 0.000006 0.000008 -0.000008 0.261505 -0.091146 0.029939 0.000007 -0.000002 -0.000008 -0.000002 0.000004 -0.000011 0.000010 0.000002 -0.000003 0.269303 -0.023910 0.036733 0.000002 0.000003 -0.000010 0.000001 0.000005 -0.000006 0.000002 -0.000002 0.000004 0.259435 0.044468 0.030249 0.000000 0.000007 -0.000006 -0.000003 0.000011 0.000001 -0.000002 -0.000001 -0.000004 0.244971 0.091238 -0.004565 0.000003 -0.000001 -0.000006 0.000002 -0.000012 0.000013 0.000001 0.000000 -0.000004 0.054397 -0.043377 -0.041628 -0.000005 -0.000007 0.000000 0.000009 0.000003 -0.000010 0.000013 0.000002 -0.000015 -0.096579 -0.219347 0.625067 8.592283 -2.625652 16.184465 6.825691 26.911213 18.080245 3.170393 -5.274816 143.581764 -0.004237 -0.024173 -0.003246 -0.272039 -0.058997 0.010122 -0.000006 -0.000005 0.000010 -0.000003 -0.000011 -0.000005 -0.000004 0.000011 -0.000003 -0.272201 0.008718 0.016618 0.000001 0.000001 0.000007 -0.000001 0.000003 -0.000005 -0.000000 -0.000009 -0.000001 -0.253752 0.075390 0.011183 0.000005 0.000007 0.000002 0.000005 0.000002 -0.000003 0.000013 -0.000000 -0.000011 -0.231250 0.119933 -0.022256 -0.000001 0.000001 0.000008 -0.000012 0.000004 0.000017 0.000005 -0.000005 -0.000012 -0.055977 -0.036723 -0.045724 0.000003 0.000013 0.000002 0.000009 -0.000002 0.000004 0.000001 -0.000007 -0.000006 -0.309184 0.038560 0.106839 -82.568743 44.715715 -9.643329 71.099011 -1.804705 4.403910 9.812145 8.629505 -20.675247 0.000000 0.000020 0.000003 0.286956 0.010519 0.243539 -82.017437 -52.855610 9.859000 68.880108 -1.857082 4.188576 1.826834 0.126080 -0.348785 -0.017471 0.001052 -0.000645 
-0.142126 1.262690 1.540128 10.541159 23.610381 54.696845 -0.001262 0.143019 0.265921 0.041095 0.058401 2.338928 -3.657400 6.398621 -1.312351 -13.428147 22.438662 0.016361 -0.025452 -0.015681 0.659659 -0.135183 -0.059441 -0.029317 -0.015630 0.241251 -0.011115 0.023101 -0.226561 0.629514 -3.740419 27.588333 0.624873 -19.088173 -40.117147 -8.865591 0.147235 0.092441 -3.298677 0.000008 0.000007 -0.000008 0.261504 -0.091146 0.029939 0.000009 -0.000003 -0.000004 0.000006 0.000003 0.000001 0.000001 0.000004 -0.000005 0.269303 -0.023910 0.036732 0.000002 0.000001 -0.000002 0.000002 0.000001 -0.000006 -0.000003 0.000004 0.000004 0.259435 0.044467 0.030248 0.000003 -0.000001 -0.000000 -0.000002 0.000004 0.000000 -0.000001 0.000002 0.000001 0.244970 0.091238 -0.004565 0.000000 0.000001 0.000000 -0.000004 0.000005 0.000008 0.000004 0.000006 0.000006 0.054396 -0.043377 -0.041628 -0.000006 -0.000005 0.000005 0.000005 0.000010 -0.000009 -0.000003 0.000003 -0.000002 -0.096579 -0.219346 0.625067 8.511867 -2.469862 16.021484 0.299794 35.780820 20.515641 3.028716 -5.301244 141.306355 -0.004317 -0.024579 -0.003297 -0.272041 -0.058997 0.010121 -0.000006 -0.000012 0.000006 0.000008 -0.000015 0.000007 0.000006 0.000015 -0.000002 -0.272202 0.008718 0.016618 -0.000001 -0.000006 0.000001 0.000007 -0.000000 0.000001 -0.000010 -0.000006 -0.000003 -0.253753 0.075389 0.011183 -0.000002 -0.000001 0.000001 0.000008 0.000007 -0.000002 0.000011 0.000003 -0.000010 -0.231251 0.119933 -0.022256 -0.000003 -0.000003 0.000006 0.000003 -0.000002 0.000006 -0.000003 -0.000009 -0.000011 -0.055978 -0.036723 -0.045725 0.000010 -0.000001 0.000003 0.000009 -0.000011 -0.000000 -0.000002 -0.000003 0.000010 -0.309184 0.038560 0.106839 -83.119652 45.910380 -8.904982 71.257991 -1.802413 4.413728 10.538014 8.312067 -20.373795 0.000006 0.000014 0.000003 0.286956 0.010519 0.243539 -85.023431 -52.528837 7.988113 71.860270 -1.813229 4.394527 0.658205 0.267192 -0.511264 -0.141048 0.008513 -0.005231 
-0.124306 1.288120 1.521871 10.116057 24.017605 55.497572 -0.001262 0.143018 0.265921 0.041925 0.058969 2.323281 -3.704850 6.704171 -1.358588 -13.736353 23.593032 -0.399493 -0.025452 -0.015681 0.659659 -0.128892 -0.055886 -0.028117 -0.007919 0.288108 -0.007631 0.023102 -0.226561 0.629513 -3.737375 27.514434 0.635529 -20.908785 -43.277602 -9.768122 0.138698 0.086467 -3.108189 0.000007 0.000003 -0.000007 0.261505 -0.091147 0.029939 0.000004 0.000004 -0.000009 0.000004 0.000008 -0.000006 0.000004 0.000001 -0.000005 0.269304 -0.023910 0.036733 0.000002 0.000002 -0.000002 0.000000 -0.000000 -0.000000 -0.000000 0.000002 -0.000001 0.259435 0.044467 0.030248 0.000003 0.000005 0.000002 -0.000002 0.000003 0.000001 0.000003 0.000000 -0.000004 0.244970 0.091238 -0.004565 -0.000001 0.000006 -0.000001 -0.000000 0.000002 0.000016 0.000003 0.000000 -0.000003 0.054396 -0.043377 -0.041628 -0.000007 -0.000007 -0.000006 0.000007 0.000005 -0.000017 0.000006 0.000019 -0.000015 -0.096579 -0.219346 0.625067 8.430802 -2.322503 15.863193 -7.198896 42.931175 24.656684 2.830179 -5.326701 137.938156 -0.004379 -0.025013 -0.003357 -0.272040 -0.058998 0.010121 -0.000007 -0.000004 0.000006 0.000005 -0.000014 -0.000004 -0.000000 0.000020 -0.000004 -0.272201 0.008718 0.016618 -0.000003 0.000002 0.000005 0.000006 0.000004 0.000000 0.000001 -0.000009 0.000001 -0.253752 0.075389 0.011183 -0.000005 0.000007 0.000001 -0.000007 0.000005 -0.000002 0.000008 -0.000002 -0.000009 -0.231250 0.119933 -0.022257 -0.000001 0.000001 0.000002 -0.000006 0.000004 0.000002 -0.000012 -0.000010 -0.000007 -0.055978 -0.036724 -0.045725 0.000004 0.000005 0.000001 0.000010 -0.000012 0.000001 0.000003 -0.000001 -0.000003 -0.309184 0.038560 0.106839 -83.447884 47.080521 -8.482269 71.375873 -1.800787 4.420720 11.000691 8.032259 -20.023386 0.000005 0.000021 0.000004 0.286956 0.010519 0.243539 -87.723617 -52.134547 6.263044 74.470536 -1.766062 4.572847 -0.419934 0.407622 -0.666799 -0.264640 0.015969 -0.009782 
-0.111732 1.307967 1.506864 9.621031 24.621633 56.320534 -0.001262 0.143018 0.265921 0.042747 0.059537 2.307627 -3.752523 7.005853 -1.403856 -14.024664 24.838978 -0.898823 -0.025452 -0.015681 0.659658 -0.122618 -0.052349 -0.026908 -0.017153 0.335989 -0.004694 0.023102 -0.226561 0.629513 -3.658225 27.275621 0.511075 -23.499018 -46.469503 -11.852385 0.118748 0.071562 -2.657773 0.000007 0.000009 -0.000008 0.261504 -0.091146 0.029939 0.000005 0.000005 -0.000001 0.000006 0.000007 -0.000007 0.000001 0.000004 -0.000010 0.269303 -0.023910 0.036733 0.000002 -0.000002 0.000004 -0.000000 0.000003 0.000001 -0.000001 -0.000000 0.000003 0.259435 0.044468 0.030248 0.000003 0.000001 0.000002 -0.000003 0.000005 0.000002 -0.000002 0.000002 -0.000004 0.244970 0.091238 -0.004565 0.000003 -0.000001 -0.000003 -0.000001 0.000001 0.000009 0.000002 -0.000004 -0.000000 0.054396 -0.043376 -0.041627 -0.000012 -0.000011 0.000010 0.000010 -0.000003 -0.000000 0.000007 0.000018 -0.000001 -0.096579 -0.219346 0.625067 8.344924 -2.178975 15.708786 -16.138238 47.629764 30.379281 2.604159 -5.341748 134.049088 -0.004461 -0.025432 -0.003411 -0.272041 -0.058998 0.010122 0.000004 0.000002 0.000002 -0.000001 -0.000012 -0.000004 0.000007 0.000013 -0.000002 -0.272202 0.008718 0.016618 0.000002 -0.000000 0.000002 0.000004 0.000002 0.000001 -0.000004 -0.000008 0.000003 -0.253753 0.075390 0.011184 -0.000000 0.000005 -0.000001 0.000004 0.000005 -0.000004 0.000012 0.000001 -0.000005 -0.231251 0.119933 -0.022256 -0.000001 0.000003 0.000003 -0.000007 0.000000 0.000005 0.000002 -0.000009 -0.000010 -0.055978 -0.036723 -0.045724 0.000009 0.000009 -0.000000 -0.000006 -0.000011 0.000003 -0.000001 0.000003 -0.000001 -0.309184 0.038559 0.106839 -83.542154 48.024846 -8.520504 71.461961 -1.799688 4.425538 11.326002 7.901625 -19.871628 0.000003 0.000025 0.000003 0.286955 0.010519 0.243539 -90.427128 -51.679892 4.490887 76.523254 -1.723302 4.711473 -1.194340 0.509836 -0.773059 -0.423468 0.025574 -0.015632 
